<svg width="178" height="178" viewBox="0 0 178 178" fill="none" xmlns="http://www.w3.org/2000/svg">
<circle cx="89" cy="89" r="89" fill="black"/>
<path d="M115.675 152C110.469 152 106.14 151.183 102.689 149.548C99.2373 147.857 96.5171 145.433 94.5282 142.276C92.5392 139.12 91.106 135.315 90.2285 130.862C89.4095 126.408 89 121.391 89 115.811L107.603 114.12C107.603 116.826 107.69 119.447 107.866 121.983C108.1 124.464 108.48 126.718 109.007 128.748C109.592 130.721 110.411 132.299 111.464 133.483C112.575 134.666 113.979 135.258 115.675 135.258C118.483 135.258 120.472 134.018 121.642 131.538C122.812 129.001 123.397 125.957 123.397 122.406C123.397 118.855 122.432 115.163 120.502 111.33C118.571 107.496 116.26 103.861 113.57 100.422C109.007 94.5597 104.999 89.1201 101.548 84.1032C98.1551 79.0863 95.4934 74.154 93.5629 69.3063C91.691 64.4585 90.755 59.3853 90.755 54.0866C90.755 49.9152 91.3107 46.0821 92.4222 42.5872C93.5337 39.0359 95.1424 35.9638 97.2483 33.3708C99.4128 30.7215 102.016 28.664 105.058 27.1984C108.1 25.7328 111.581 25 115.5 25C120.355 25 124.45 25.7892 127.785 27.3675C131.178 28.9458 133.898 31.2006 135.945 34.1318C138.051 37.063 139.572 40.5579 140.508 44.6165C141.503 48.6187 142 53.0719 142 57.976L123.397 59.6671C123.397 57.5815 123.28 55.4958 123.046 53.4101C122.871 51.2681 122.52 49.3233 121.993 47.5759C121.467 45.8285 120.706 44.4192 119.712 43.3482C118.717 42.2772 117.43 41.7417 115.851 41.7417C113.394 41.7417 111.698 42.7563 110.762 44.7856C109.826 46.7585 109.358 49.577 109.358 53.241C109.358 57.976 110.674 62.5419 113.306 66.9387C115.939 71.3356 119.478 76.4652 123.924 82.3276C129.247 89.261 133.576 95.6307 136.911 101.437C140.304 107.243 142 113.669 142 120.715C142 125.168 141.503 129.311 140.508 133.144C139.514 136.921 137.934 140.219 135.77 143.037C133.664 145.856 130.944 148.054 127.609 149.633C124.333 151.211 120.355 152 115.675 152Z" fill="#FF0000"/>
<path d="M42 146.66V32H82.092V49.316H58.848V79.424H74.448V96.74H58.848V146.66H42Z" fill="white"/>
</svg>
