<svg width="436" height="164" viewBox="0 0 436 164" fill="none" xmlns="http://www.w3.org/2000/svg">
<path d="M393 162.66V48H408.756V99.636V102.444H409.536L410.472 99.636L418.116 77.328H433.092L420.924 105.096L435.276 162.66H419.364L411.564 128.184L411.408 126.936H411.252L408.756 133.176V162.66H393Z" fill="white"/>
<path d="M369.124 163.75C362.208 163.75 357.112 161.592 353.836 157.276C350.612 152.96 349 146.954 349 139.258V100.492C349 92.744 350.612 86.738 353.836 82.474C357.112 78.158 362.208 76 369.124 76C376.04 76 381.136 78.158 384.412 82.474C387.74 86.79 389.404 92.796 389.404 100.492V107.2H373.648V98.464C373.648 96.072 373.336 94.07 372.712 92.458C372.088 90.846 370.892 90.04 369.124 90.04C367.356 90.04 366.186 90.872 365.614 92.536C365.042 94.148 364.756 96.124 364.756 98.464V141.286C364.756 143.626 365.042 145.628 365.614 147.292C366.186 148.904 367.356 149.71 369.124 149.71C370.892 149.71 372.088 148.904 372.712 147.292C373.336 145.68 373.648 143.678 373.648 141.286V132.55H389.404V139.258C389.404 146.954 387.74 152.96 384.412 157.276C381.136 161.592 376.04 163.75 369.124 163.75Z" fill="white"/>
<path d="M315.416 163.828C311.776 163.828 308.63 161.982 305.978 158.29C303.326 154.598 302 148.956 302 141.364C302 134.032 303.56 128.13 306.68 123.658C309.852 119.186 314.584 115.312 320.876 112.036C322.852 110.996 324.516 110.06 325.868 109.228C327.22 108.396 328.052 107.616 328.364 106.888V97.528C328.364 95.396 328.104 93.576 327.584 92.068C327.116 90.508 325.92 89.728 323.996 89.728C322.228 89.728 321.032 90.56 320.408 92.224C319.784 93.836 319.472 95.864 319.472 98.308V102.364H303.716V98.776C303.716 94.096 304.626 90.066 306.446 86.686C308.318 83.254 310.84 80.628 314.012 78.808C317.236 76.936 320.876 76 324.932 76C328.832 76 332.212 76.91 335.072 78.73C337.932 80.498 340.142 82.968 341.702 86.14C343.314 89.26 344.12 92.848 344.12 96.904V147.76C344.12 151.556 344.224 154.52 344.432 156.652C344.64 158.732 344.9 160.708 345.212 162.58H329.768C329.092 161.748 328.676 160.526 328.52 158.914C328.416 157.302 328.364 156.236 328.364 155.716H327.272C325.972 158.108 324.308 160.058 322.28 161.566C320.304 163.074 318.016 163.828 315.416 163.828ZM321.812 148.384C323.632 148.384 325.166 147.76 326.414 146.512C327.714 145.264 328.364 143.912 328.364 142.456V122.176C324.568 123.788 321.786 126.232 320.018 129.508C318.302 132.732 317.444 136.372 317.444 140.428C317.444 142.196 317.782 143.964 318.458 145.732C319.134 147.5 320.252 148.384 321.812 148.384Z" fill="white"/>
<path d="M289.052 163.64C284.112 163.64 280.342 162.548 277.742 160.364C275.142 158.18 273.348 155.06 272.36 151.004C271.424 146.948 270.956 142.112 270.956 136.496V91.256H263V77.06H270.956V56H286.712V77.06H297.554V91.256H286.712V138.758C286.712 142.086 287.206 144.556 288.194 146.168C289.182 147.728 290.794 148.508 293.03 148.508C294.018 148.508 294.876 148.43 295.604 148.274C296.384 148.118 297.008 147.936 297.476 147.728V162.158C296.436 162.574 295.292 162.912 294.044 163.172C292.848 163.484 291.184 163.64 289.052 163.64Z" fill="white"/>
<path d="M224.728 164C217.95 164 212.315 162.945 207.821 160.834C203.328 158.65 199.786 155.52 197.197 151.443C194.608 147.367 192.742 142.454 191.599 136.703C190.533 130.953 190 124.474 190 117.268L214.219 115.084C214.219 118.578 214.333 121.963 214.561 125.238C214.866 128.441 215.361 131.353 216.046 133.973C216.808 136.521 217.874 138.559 219.245 140.088C220.692 141.617 222.52 142.381 224.728 142.381C228.384 142.381 230.974 140.779 232.497 137.577C234.02 134.301 234.781 130.37 234.781 125.784C234.781 121.198 233.525 116.431 231.012 111.481C228.498 106.531 225.49 101.836 221.987 97.3955C216.046 89.8251 210.829 82.8007 206.336 76.3222C201.919 69.8438 198.454 63.4745 195.94 57.2144C193.503 50.9543 192.285 44.403 192.285 37.5606C192.285 32.174 193.008 27.2241 194.455 22.711C195.902 18.1252 197.997 14.158 200.738 10.8096C203.556 7.38837 206.945 4.73147 210.906 2.83888C214.866 0.946293 219.397 0 224.5 0C230.821 0 236.152 1.01908 240.493 3.05725C244.911 5.09543 248.452 8.0071 251.118 11.7923C253.859 15.5774 255.839 20.0905 257.058 25.3316C258.353 30.4998 259 36.2503 259 42.5832L234.781 44.767C234.781 42.0737 234.629 39.3804 234.325 36.6871C234.096 33.921 233.639 31.4097 232.954 29.1531C232.268 26.8966 231.278 25.0768 229.983 23.6937C228.689 22.3107 227.013 21.6192 224.957 21.6192C221.758 21.6192 219.55 22.9294 218.331 25.5499C217.113 28.0977 216.503 31.7372 216.503 36.4687C216.503 42.5832 218.217 48.4794 221.644 54.1571C225.071 59.8349 229.679 66.4589 235.467 74.0293C242.397 82.9827 248.033 91.2082 252.374 98.7057C256.791 106.203 259 114.502 259 123.601C259 129.351 258.353 134.701 257.058 139.651C255.763 144.528 253.707 148.787 250.889 152.426C248.147 156.066 244.606 158.905 240.265 160.943C236 162.981 230.821 164 224.728 164Z" fill="#FF0000"/>
<path d="M132.636 155.332L120 70H135.132L139.344 114.616L139.968 123.352H140.904L141.684 114.616L148.236 70H157.596L164.148 114.616L164.928 123.352H165.864L166.488 114.616L170.7 70H185.832L173.196 155.332H160.092L154.008 114.616L153.228 106.66H152.604L151.824 114.616L145.74 155.332H132.636Z" fill="white"/>
<path d="M96.202 155.672C89.91 155.672 84.97 153.566 81.382 149.354C77.794 145.09 76 139.708 76 133.208V90.464C76 83.964 77.794 78.608 81.382 74.396C84.97 70.132 89.91 68 96.202 68C102.442 68 107.356 70.132 110.944 74.396C114.584 78.608 116.404 83.964 116.404 90.464V133.208C116.404 139.708 114.584 145.09 110.944 149.354C107.356 153.566 102.442 155.672 96.202 155.672ZM96.202 141.944C98.23 141.944 99.634 141.138 100.414 139.526C101.194 137.862 101.584 135.756 101.584 133.208V90.464C101.584 87.864 101.194 85.758 100.414 84.146C99.634 82.534 98.23 81.728 96.202 81.728C94.174 81.728 92.77 82.534 91.99 84.146C91.21 85.758 90.82 87.864 90.82 90.464V133.208C90.82 135.808 91.21 137.914 91.99 139.526C92.77 141.138 94.174 141.944 96.202 141.944Z" fill="white"/>
<path d="M56 154.66V40H71.756V154.66H56Z" fill="white"/>
<path d="M0 155V0H64V23.4082H26.8949V64.1088H51.7977V87.517H26.8949V155H0Z" fill="white"/>
</svg>
